<svg width="275" height="21" viewBox="0 0 275 21" fill="none" xmlns="http://www.w3.org/2000/svg">
<path d="M2 18.6009C59.8316 18.0168 117.663 17.5891 175.496 17.1362C205.991 16.8973 297.375 17.5079 266.964 15.2374C228.362 12.3553 189.029 13.1238 150.378 12.9588C109.9 12.786 68.8136 14.8616 28.3662 12.4163C26.4616 12.3011 21.2602 12.0325 22.8326 10.9515C25.8398 8.884 29.9579 9.32489 33.5743 8.83568C40.5287 7.89493 47.5256 7.29131 54.5154 6.66562C70.0462 5.2754 86.0736 3.7274 101.714 4.17006C117.749 4.62388 69.634 4.83913 53.5931 4.71257C36.0405 4.57409 19.3064 2.98894 2 2" stroke="#328C13" stroke-width="3" stroke-linecap="round"/>
</svg>
