<svg width="332" height="124" viewBox="0 0 332 124" fill="none" xmlns="http://www.w3.org/2000/svg">
<path d="M182.972 13.3521C151.884 5.89094 120.032 2.16532 87.9776 2.33906C68.1589 2.44648 49.067 5.07512 33.3464 18.1262C23.4878 26.3107 17.4009 33.81 10.832 44.9807C4.59703 55.5837 -4.07028 67.4576 7.90245 79.4304C15.6507 87.1786 25.9634 92.3268 36.2759 96.0313C69.1169 107.828 134.141 117.947 166.479 120.227C201.19 122.675 255.568 122.948 290.281 109.811C308.421 102.946 331.978 84.8398 329.993 61.5274C328.331 42.0045 304.261 22.1475 288.871 15.4137C261.818 3.57675 225.019 3.43147 196.86 4.67187C150.165 6.72883 103.178 15.0584 57 22.1408" stroke="#328C13" stroke-width="3" stroke-linecap="round"/>
</svg>
