<svg width="218" height="60" viewBox="0 0 218 60" fill="none" xmlns="http://www.w3.org/2000/svg">
<path d="M14.2601 22.499L14.2591 22.4687H14.2288H9.8926C7.69294 22.4687 6.59187 19.8099 8.14719 18.2546L18.8797 7.52207C20.435 5.96675 23.0938 7.06782 23.0938 9.26747V11.25V11.2812H23.1251H24.8376C27.1076 11.2812 28.1741 14.0869 26.4768 15.5954L23.9518 17.8391L23.9332 17.8556L23.9452 17.8775L28.0952 25.4612C28.7201 26.6031 29.6843 27.5227 30.8546 28.0927C32.0249 28.6628 33.3433 28.8552 34.6277 28.6433L51.0214 25.9396C51.9786 25.7817 52.6381 26.8736 52.0514 27.6473L52.0763 27.6662L52.0514 27.6473C50.592 29.5732 49.9097 31.944 49.4482 34.3102C49.1543 35.8134 48.6851 37.2556 48.0631 38.6134C47.9608 38.678 47.8685 38.757 47.789 38.8482C45.1674 41.8215 41.2447 43.7187 36.8476 43.7187C28.8937 43.7187 22.5313 37.5304 22.5313 30C22.5313 29.6602 22.3964 29.3343 22.1561 29.094C21.9158 28.8537 21.5899 28.7187 21.2501 28.7187C20.9103 28.7187 20.5844 28.8537 20.3441 29.094C20.1038 29.3343 19.9688 29.6602 19.9688 30C19.9688 39.0384 27.5728 46.2812 36.8475 46.2812C39.044 46.2849 41.2206 45.8717 43.2621 45.0643C40.2505 47.7237 36.492 49.3929 32.4966 49.8427L32.4688 49.8458V49.8737V52.5V52.5312H32.5001H35.5938V54.9687H23.7813V52.5312H30.0001H30.0313V52.5V50V49.969L30.0004 49.9687C26.8065 49.9353 23.6693 49.1212 20.8621 47.5975C18.0549 46.0737 15.663 43.8865 13.8949 41.2264C11.5463 37.6868 11.8597 33.1744 12.9615 29.0606L13.9128 25.5081C14.1755 24.5275 14.2925 23.5136 14.2601 22.499ZM22.714 15.6275L22.7328 15.6619L22.7621 15.6358L24.8584 13.7733L24.9198 13.7187H24.8376H23.1251C22.4703 13.7187 21.8424 13.4586 21.3794 12.9956C20.9164 12.5327 20.6563 11.9047 20.6563 11.25V9.26747V9.19203L20.603 9.24538L17.298 12.5504L17.2279 12.6205L17.3255 12.6032C18.3182 12.4283 19.3409 12.569 20.2494 13.0057C21.1579 13.4424 21.9067 14.153 22.3902 15.0375L22.3902 15.0375L22.714 15.6275ZM13.4159 16.5129L13.433 16.4153L13.363 16.4854L9.8705 19.9779L9.81715 20.0312H9.8926H13.8413H13.8817L13.8716 19.9921L13.4991 18.5571L13.4991 18.5571C13.3247 17.8896 13.2963 17.1923 13.4159 16.5129ZM17.5001 17.5312C17.8399 17.5312 18.1658 17.3962 18.4061 17.156C18.6464 16.9157 18.7813 16.5898 18.7813 16.25C18.7813 15.9102 18.6464 15.5843 18.4061 15.344C18.1658 15.1037 17.8399 14.9687 17.5001 14.9687C17.1603 14.9687 16.8344 15.1037 16.5941 15.344C16.3538 15.5843 16.2188 15.9102 16.2188 16.25C16.2188 16.5898 16.3538 16.9157 16.5941 17.156C16.8344 17.3962 17.1603 17.5312 17.5001 17.5312Z" fill="url(#paint0_linear_14_11169)" stroke="#00681D" stroke-width="0.0625"/>
<mask id="path-2-inside-1_14_11169" fill="white">
<path d="M121.631 2.75916C120.485 2.76583 119.688 3.11623 119.2 3.95681C117.148 7.49353 114.696 11.1808 113.51 15.3527C113.843 15.45 114.171 15.5621 114.492 15.687C115.353 16.0226 116.177 16.4467 116.899 16.9595C120.125 13.9663 123.715 11.6614 127.147 9.28814C128.478 8.36775 128.585 7.69627 128.34 6.84712C128.095 5.99798 127.184 4.92935 125.935 4.13119C124.686 3.33314 123.138 2.80345 121.865 2.76244C121.785 2.75986 121.707 2.7588 121.631 2.75916ZM113.545 2.84658C112.371 2.82525 111.46 3.59576 110.742 5.21845C109.694 7.58494 109.545 11.4805 110.572 14.9667C110.59 14.9658 110.609 14.964 110.627 14.9632C110.86 14.953 111.094 14.9547 111.33 14.9667C112.436 10.886 114.607 7.38232 116.488 4.24076C115.28 3.24513 114.276 2.86005 113.545 2.84669L113.545 2.84658ZM102.145 9.66794L100.914 11.4808C102.651 12.6574 104.319 13.7924 105.58 15.1575C106.039 15.6544 106.443 16.1796 106.788 16.752C107.218 16.2123 107.767 15.7794 108.392 15.4874C108.44 15.4653 108.488 15.4458 108.536 15.4252C108.135 14.7877 107.68 14.2044 107.187 13.6707C105.691 12.0504 103.878 10.8422 102.145 9.66794ZM128.368 11.1058C124.939 13.4763 121.503 15.694 118.483 18.4629C118.535 18.5304 118.583 18.5997 118.631 18.6691C121.054 17.8781 124.43 16.8723 127.293 16.3945C128.638 16.17 129.128 15.6267 129.352 14.8444C129.576 14.062 129.404 12.8861 128.729 11.6823C128.618 11.4847 128.497 11.2923 128.368 11.1057L128.368 11.1058ZM102.125 16.7156C100.373 16.739 98.6407 17.2195 96.9738 18.2116L98.0944 20.0901C100.632 18.5796 103.09 18.4339 105.739 19.5554C105.8 18.9001 105.946 18.3062 106.176 17.773C106.217 17.6785 106.261 17.5871 106.307 17.4971C104.916 16.9674 103.515 16.6971 102.125 16.7155L102.125 16.7156ZM111.008 17.1766C110.354 17.1669 109.766 17.2636 109.317 17.4726C108.804 17.7115 108.442 18.0485 108.186 18.641C108.083 18.8809 108.002 19.173 107.954 19.5192C108.007 19.5184 108.061 19.5157 108.114 19.5153C109.995 19.5055 111.933 19.8399 113.893 20.5923C114.797 20.9392 115.658 21.4657 116.476 22.1373C116.853 21.8508 117.061 21.5842 117.153 21.3715C117.295 21.0436 117.281 20.764 117.079 20.3379C116.673 19.4853 115.296 18.351 113.697 17.7281C112.897 17.4166 112.059 17.2331 111.292 17.1874C111.196 17.1815 111.101 17.178 111.008 17.1766H111.008ZM108.107 21.6833C105.413 21.6921 102.866 22.5488 100.489 24.0015C96.6872 26.3259 93.3919 30.227 91.0741 34.5521C88.7564 38.8773 87.4257 43.6236 87.4195 47.5049C87.4132 51.3791 88.6218 54.2162 91.2646 55.4481C91.2697 55.4504 91.2742 55.4531 91.2793 55.4554H91.283C94.1977 56.8043 98.9724 57.7215 103.987 57.81C109.001 57.8986 114.275 57.1705 118.269 55.4443C120.843 54.3322 122.317 52.1101 123.015 49.0979C123.713 46.0856 123.545 42.3412 122.737 38.6314C121.929 34.9216 120.487 31.2416 118.741 28.3336C116.996 25.4257 114.919 23.3339 113.109 22.6391C111.391 21.9797 109.722 21.6781 108.107 21.6833Z"/>
</mask>
<path d="M121.631 2.75916C120.485 2.76583 119.688 3.11623 119.2 3.95681C117.148 7.49353 114.696 11.1808 113.51 15.3527C113.843 15.45 114.171 15.5621 114.492 15.687C115.353 16.0226 116.177 16.4467 116.899 16.9595C120.125 13.9663 123.715 11.6614 127.147 9.28814C128.478 8.36775 128.585 7.69627 128.34 6.84712C128.095 5.99798 127.184 4.92935 125.935 4.13119C124.686 3.33314 123.138 2.80345 121.865 2.76244C121.785 2.75986 121.707 2.7588 121.631 2.75916ZM113.545 2.84658C112.371 2.82525 111.46 3.59576 110.742 5.21845C109.694 7.58494 109.545 11.4805 110.572 14.9667C110.59 14.9658 110.609 14.964 110.627 14.9632C110.86 14.953 111.094 14.9547 111.33 14.9667C112.436 10.886 114.607 7.38232 116.488 4.24076C115.28 3.24513 114.276 2.86005 113.545 2.84669L113.545 2.84658ZM102.145 9.66794L100.914 11.4808C102.651 12.6574 104.319 13.7924 105.58 15.1575C106.039 15.6544 106.443 16.1796 106.788 16.752C107.218 16.2123 107.767 15.7794 108.392 15.4874C108.44 15.4653 108.488 15.4458 108.536 15.4252C108.135 14.7877 107.68 14.2044 107.187 13.6707C105.691 12.0504 103.878 10.8422 102.145 9.66794ZM128.368 11.1058C124.939 13.4763 121.503 15.694 118.483 18.4629C118.535 18.5304 118.583 18.5997 118.631 18.6691C121.054 17.8781 124.43 16.8723 127.293 16.3945C128.638 16.17 129.128 15.6267 129.352 14.8444C129.576 14.062 129.404 12.8861 128.729 11.6823C128.618 11.4847 128.497 11.2923 128.368 11.1057L128.368 11.1058ZM102.125 16.7156C100.373 16.739 98.6407 17.2195 96.9738 18.2116L98.0944 20.0901C100.632 18.5796 103.09 18.4339 105.739 19.5554C105.8 18.9001 105.946 18.3062 106.176 17.773C106.217 17.6785 106.261 17.5871 106.307 17.4971C104.916 16.9674 103.515 16.6971 102.125 16.7155L102.125 16.7156ZM111.008 17.1766C110.354 17.1669 109.766 17.2636 109.317 17.4726C108.804 17.7115 108.442 18.0485 108.186 18.641C108.083 18.8809 108.002 19.173 107.954 19.5192C108.007 19.5184 108.061 19.5157 108.114 19.5153C109.995 19.5055 111.933 19.8399 113.893 20.5923C114.797 20.9392 115.658 21.4657 116.476 22.1373C116.853 21.8508 117.061 21.5842 117.153 21.3715C117.295 21.0436 117.281 20.764 117.079 20.3379C116.673 19.4853 115.296 18.351 113.697 17.7281C112.897 17.4166 112.059 17.2331 111.292 17.1874C111.196 17.1815 111.101 17.178 111.008 17.1766H111.008ZM108.107 21.6833C105.413 21.6921 102.866 22.5488 100.489 24.0015C96.6872 26.3259 93.3919 30.227 91.0741 34.5521C88.7564 38.8773 87.4257 43.6236 87.4195 47.5049C87.4132 51.3791 88.6218 54.2162 91.2646 55.4481C91.2697 55.4504 91.2742 55.4531 91.2793 55.4554H91.283C94.1977 56.8043 98.9724 57.7215 103.987 57.81C109.001 57.8986 114.275 57.1705 118.269 55.4443C120.843 54.3322 122.317 52.1101 123.015 49.0979C123.713 46.0856 123.545 42.3412 122.737 38.6314C121.929 34.9216 120.487 31.2416 118.741 28.3336C116.996 25.4257 114.919 23.3339 113.109 22.6391C111.391 21.9797 109.722 21.6781 108.107 21.6833Z" fill="url(#paint1_linear_14_11169)"/>
<path d="M121.631 2.75916L121.63 2.55916L121.63 2.55916L121.631 2.75916ZM119.2 3.95681L119.373 4.05718L119.373 4.05717L119.2 3.95681ZM113.51 15.3527L113.318 15.298L113.264 15.4889L113.454 15.5447L113.51 15.3527ZM114.492 15.687L114.564 15.5007L114.564 15.5007L114.492 15.687ZM116.899 16.9595L116.783 17.1225L116.916 17.2167L117.035 17.1061L116.899 16.9595ZM127.147 9.28814L127.261 9.45264L127.261 9.45263L127.147 9.28814ZM125.935 4.13119L126.043 3.96266L126.043 3.96265L125.935 4.13119ZM121.865 2.76244L121.859 2.96233L121.859 2.96233L121.865 2.76244ZM113.545 2.84658L113.635 2.66797L113.594 2.64744L113.549 2.64661L113.545 2.84658ZM110.742 5.21845L110.559 5.13747L110.559 5.13749L110.742 5.21845ZM110.572 14.9667L110.38 15.0232L110.425 15.1745L110.582 15.1664L110.572 14.9667ZM110.627 14.9632L110.618 14.7634L110.618 14.7634L110.627 14.9632ZM111.33 14.9667L111.32 15.1664L111.481 15.1746L111.523 15.019L111.33 14.9667ZM116.488 4.24076L116.659 4.34348L116.748 4.19584L116.615 4.08641L116.488 4.24076ZM113.545 2.84669L113.455 3.0253L113.496 3.04583L113.542 3.04666L113.545 2.84669ZM102.145 9.66794L102.257 9.50237L102.091 9.39029L101.979 9.55563L102.145 9.66794ZM100.914 11.4808L100.749 11.3685L100.636 11.5341L100.802 11.6464L100.914 11.4808ZM105.58 15.1575L105.433 15.2932L105.433 15.2932L105.58 15.1575ZM106.788 16.752L106.617 16.8552L106.765 17.1018L106.944 16.8767L106.788 16.752ZM108.392 15.4874L108.308 15.3058L108.308 15.3061L108.392 15.4874ZM108.536 15.4252L108.615 15.6091L108.83 15.5168L108.705 15.3187L108.536 15.4252ZM107.187 13.6707L107.04 13.8064L107.04 13.8064L107.187 13.6707ZM128.368 11.1058L128.481 11.2703L128.496 11.2603L128.509 11.2478L128.368 11.1058ZM118.483 18.4629L118.348 18.3154L118.214 18.4387L118.324 18.5839L118.483 18.4629ZM118.631 18.6691L118.466 18.783L118.551 18.9055L118.693 18.8592L118.631 18.6691ZM127.293 16.3945L127.26 16.1972L127.26 16.1972L127.293 16.3945ZM128.729 11.6823L128.904 11.5844L128.903 11.584L128.729 11.6823ZM128.368 11.1057L128.532 10.9919L128.396 10.7956L128.227 10.9638L128.368 11.1057ZM102.125 16.7156L102.128 16.9156L102.209 16.9145L102.266 16.857L102.125 16.7156ZM96.9738 18.2116L96.8715 18.0398L96.6994 18.1421L96.802 18.3141L96.9738 18.2116ZM98.0944 20.0901L97.9227 20.1926L98.025 20.3642L98.1967 20.262L98.0944 20.0901ZM105.739 19.5554L105.661 19.7396L105.913 19.8462L105.938 19.5739L105.739 19.5554ZM106.176 17.773L105.992 17.6933L105.992 17.6938L106.176 17.773ZM106.307 17.4971L106.485 17.5882L106.587 17.3896L106.378 17.3102L106.307 17.4971ZM102.125 16.7155L102.122 16.5155L102.041 16.5166L101.984 16.5741L102.125 16.7155ZM111.008 17.1766L111.005 17.3766H111.008V17.1766ZM109.317 17.4726L109.402 17.6539L109.402 17.6539L109.317 17.4726ZM108.186 18.641L108.37 18.7203L108.37 18.7202L108.186 18.641ZM107.954 19.5192L107.756 19.4915L107.723 19.7228L107.957 19.7192L107.954 19.5192ZM108.114 19.5153L108.113 19.3153L108.113 19.3153L108.114 19.5153ZM113.893 20.5923L113.821 20.779L113.821 20.779L113.893 20.5923ZM116.476 22.1373L116.349 22.2919L116.472 22.3921L116.597 22.2965L116.476 22.1373ZM117.153 21.3715L116.969 21.2921L116.969 21.2922L117.153 21.3715ZM117.079 20.3379L117.259 20.252L117.259 20.252L117.079 20.3379ZM113.697 17.7281L113.624 17.9145L113.624 17.9145L113.697 17.7281ZM111.292 17.1874L111.28 17.387L111.28 17.387L111.292 17.1874ZM111.008 17.1766L111.011 16.9766H111.008V17.1766ZM108.107 21.6833L108.106 21.4833L108.106 21.4833L108.107 21.6833ZM100.489 24.0015L100.385 23.8309L100.385 23.8309L100.489 24.0015ZM91.0741 34.5521L90.8978 34.4577L90.8978 34.4577L91.0741 34.5521ZM87.4195 47.5049L87.6195 47.5052L87.6195 47.5052L87.4195 47.5049ZM91.2646 55.4481L91.1801 55.6293L91.1803 55.6294L91.2646 55.4481ZM91.2793 55.4554L91.1949 55.6368L91.235 55.6554H91.2793V55.4554ZM91.283 55.4554L91.367 55.2739L91.327 55.2554H91.283V55.4554ZM103.987 57.81L103.99 57.61L103.99 57.61L103.987 57.81ZM118.269 55.4443L118.19 55.2607L118.19 55.2607L118.269 55.4443ZM123.015 49.0979L123.21 49.143L123.21 49.143L123.015 49.0979ZM122.737 38.6314L122.932 38.5889L122.932 38.5889L122.737 38.6314ZM118.741 28.3336L118.57 28.4365L118.57 28.4365L118.741 28.3336ZM113.109 22.6391L113.181 22.4524L113.181 22.4524L113.109 22.6391ZM121.63 2.55916C121.038 2.56261 120.52 2.65472 120.082 2.86493C119.641 3.07666 119.29 3.40316 119.027 3.85646L119.373 4.05717C119.598 3.66988 119.889 3.40089 120.255 3.2256C120.624 3.0488 121.078 2.96238 121.632 2.95915L121.63 2.55916ZM119.027 3.85644C116.984 7.37766 114.513 11.0951 113.318 15.298L113.703 15.4074C114.88 11.2666 117.312 7.6094 119.373 4.05718L119.027 3.85644ZM113.454 15.5447C113.781 15.6403 114.103 15.7505 114.419 15.8734L114.564 15.5007C114.238 15.3737 113.905 15.2597 113.566 15.1608L113.454 15.5447ZM114.419 15.8734C115.268 16.2041 116.077 16.6209 116.783 17.1225L117.015 16.7964C116.277 16.2725 115.438 15.841 114.564 15.5007L114.419 15.8734ZM117.035 17.1061C120.248 14.1254 123.821 11.8312 127.261 9.45264L127.033 9.12364C123.609 11.4916 120.003 13.8072 116.763 16.8128L117.035 17.1061ZM127.261 9.45263C127.938 8.98382 128.335 8.55893 128.519 8.11803C128.706 7.66935 128.661 7.23728 128.532 6.7917L128.148 6.90255C128.264 7.30611 128.288 7.63436 128.15 7.96379C128.009 8.30103 127.686 8.67207 127.033 9.12365L127.261 9.45263ZM128.532 6.7917C128.268 5.87668 127.312 4.77378 126.043 3.96266L125.827 4.29971C127.056 5.08492 127.922 6.11929 128.148 6.90255L128.532 6.7917ZM126.043 3.96265C124.769 3.1492 123.187 2.60493 121.871 2.56254L121.859 2.96233C123.089 3.00197 124.602 3.51707 125.827 4.29972L126.043 3.96265ZM121.871 2.56254C121.789 2.55988 121.709 2.55879 121.63 2.55916L121.632 2.95915C121.706 2.95881 121.781 2.95983 121.859 2.96233L121.871 2.56254ZM113.549 2.64661C112.256 2.62312 111.291 3.48436 110.559 5.13747L110.925 5.29943C111.63 3.70715 112.486 3.02738 113.542 3.04654L113.549 2.64661ZM110.559 5.13749C109.487 7.55752 109.343 11.5036 110.38 15.0232L110.764 14.9102C109.747 11.4574 109.901 7.61235 110.925 5.29941L110.559 5.13749ZM110.582 15.1664C110.594 15.1658 110.606 15.165 110.614 15.1644C110.623 15.1637 110.63 15.1633 110.636 15.163L110.618 14.7634C110.606 14.7639 110.594 14.7648 110.585 14.7654C110.575 14.7661 110.569 14.7666 110.562 14.767L110.582 15.1664ZM110.636 15.163C110.862 15.1531 111.09 15.1548 111.32 15.1664L111.34 14.767C111.099 14.7547 110.858 14.7529 110.618 14.7634L110.636 15.163ZM111.523 15.019C112.62 10.97 114.775 7.49082 116.659 4.34348L116.316 4.13804C114.439 7.27382 112.251 10.802 111.137 14.9144L111.523 15.019ZM116.615 4.08641C115.389 3.07585 114.343 2.66124 113.549 2.64673L113.542 3.04666C114.209 3.05887 115.171 3.41441 116.361 4.3951L116.615 4.08641ZM113.635 2.66808L113.635 2.66797L113.455 3.02519L113.455 3.0253L113.635 2.66808ZM101.979 9.55563L100.749 11.3685L101.08 11.5932L102.31 9.78026L101.979 9.55563ZM100.802 11.6464C102.543 12.8259 104.191 13.9481 105.433 15.2932L105.727 15.0218C104.448 13.6366 102.759 12.4889 101.026 11.3153L100.802 11.6464ZM105.433 15.2932C105.884 15.7814 106.28 16.2959 106.617 16.8552L106.959 16.6489C106.607 16.0633 106.194 15.5273 105.727 15.0218L105.433 15.2932ZM106.944 16.8767C107.355 16.361 107.88 15.9475 108.477 15.6686L108.308 15.3061C107.654 15.6112 107.081 16.0635 106.632 16.6274L106.944 16.8767ZM108.476 15.6689C108.521 15.6484 108.562 15.6318 108.615 15.6091L108.457 15.2414C108.415 15.2597 108.359 15.2823 108.308 15.3058L108.476 15.6689ZM108.705 15.3187C108.297 14.6701 107.835 14.077 107.334 13.535L107.04 13.8064C107.526 14.3318 107.973 14.9054 108.367 15.5318L108.705 15.3187ZM107.334 13.535C105.82 11.8946 103.986 10.6737 102.257 9.50237L102.032 9.83352C103.77 11.0106 105.563 12.2061 107.04 13.8064L107.334 13.535ZM128.254 10.9413C124.833 13.3066 121.381 15.5346 118.348 18.3154L118.618 18.6103C121.626 15.8533 125.046 13.646 128.481 11.2703L128.254 10.9413ZM118.324 18.5839C118.372 18.6473 118.418 18.713 118.466 18.783L118.795 18.5552C118.747 18.4865 118.697 18.4134 118.642 18.3418L118.324 18.5839ZM118.693 18.8592C121.114 18.0688 124.478 17.067 127.326 16.5918L127.26 16.1972C124.381 16.6776 120.994 17.6874 118.569 18.479L118.693 18.8592ZM127.326 16.5918C128.019 16.4762 128.515 16.2748 128.87 15.9832C129.228 15.6888 129.424 15.3177 129.544 14.8995L129.16 14.7892C129.055 15.1534 128.895 15.445 128.616 15.6741C128.334 15.9058 127.912 16.0883 127.26 16.1972L127.326 16.5918ZM129.544 14.8995C129.788 14.0491 129.595 12.8172 128.904 11.5844L128.555 11.7801C129.214 12.9551 129.365 14.0749 129.16 14.7892L129.544 14.8995ZM128.903 11.584C128.789 11.381 128.665 11.1834 128.532 10.9919L128.203 11.2196C128.329 11.4011 128.446 11.5883 128.555 11.7806L128.903 11.584ZM128.227 10.9638L128.227 10.9639L128.509 11.2478L128.509 11.2477L128.227 10.9638ZM102.122 16.5156C100.334 16.5395 98.5675 17.0303 96.8715 18.0398L97.076 18.3835C98.7139 17.4087 100.412 16.9385 102.128 16.9156L102.122 16.5156ZM96.802 18.3141L97.9227 20.1926L98.2662 19.9877L97.1455 18.1092L96.802 18.3141ZM98.1967 20.262C100.68 18.7842 103.07 18.6428 105.661 19.7396L105.817 19.3712C103.109 18.225 100.585 18.375 97.9921 19.9183L98.1967 20.262ZM105.938 19.5739C105.997 18.9369 106.139 18.3638 106.359 17.8522L105.992 17.6938C105.753 18.2485 105.602 18.8633 105.54 19.5369L105.938 19.5739ZM106.359 17.8526C106.398 17.7634 106.44 17.676 106.485 17.5882L106.129 17.406C106.082 17.4983 106.035 17.5937 105.992 17.6933L106.359 17.8526ZM106.378 17.3102C104.967 16.7726 103.54 16.4967 102.122 16.5155L102.128 16.9155C103.489 16.8974 104.866 17.1622 106.236 17.684L106.378 17.3102ZM101.984 16.5741L101.984 16.5742L102.266 16.857L102.267 16.8569L101.984 16.5741ZM111.011 16.9766C110.339 16.9666 109.718 17.0653 109.233 17.2913L109.402 17.6539C109.814 17.4618 110.369 17.3671 111.005 17.3766L111.011 16.9766ZM109.233 17.2913C108.678 17.5496 108.279 17.9216 108.003 18.5617L108.37 18.7202C108.605 18.1753 108.93 17.8733 109.402 17.6539L109.233 17.2913ZM108.003 18.5617C107.891 18.8208 107.806 19.1308 107.756 19.4915L108.152 19.5469C108.198 19.2152 108.275 18.9409 108.37 18.7203L108.003 18.5617ZM107.957 19.7192C108.027 19.7181 108.056 19.7157 108.115 19.7153L108.113 19.3153C108.065 19.3156 107.988 19.3187 107.951 19.3192L107.957 19.7192ZM108.115 19.7153C109.971 19.7056 111.884 20.0355 113.821 20.779L113.964 20.4056C111.981 19.6443 110.019 19.3054 108.113 19.3153L108.115 19.7153ZM113.821 20.779C114.701 21.1168 115.544 21.6313 116.349 22.2919L116.603 21.9827C115.771 21.3001 114.892 20.7615 113.964 20.4056L113.821 20.779ZM116.597 22.2965C116.991 21.9971 117.227 21.7052 117.336 21.4507L116.969 21.2922C116.896 21.4631 116.715 21.7044 116.355 21.9781L116.597 22.2965ZM117.336 21.4508C117.417 21.2638 117.458 21.0801 117.444 20.8782C117.431 20.6796 117.366 20.4776 117.259 20.252L116.898 20.4238C116.993 20.6242 117.037 20.7751 117.045 20.9048C117.054 21.0312 117.03 21.1512 116.969 21.2921L117.336 21.4508ZM117.259 20.252C117.037 19.7857 116.565 19.2662 115.959 18.7897C115.35 18.31 114.588 17.8606 113.77 17.5417L113.624 17.9145C114.405 18.2185 115.132 18.6477 115.712 19.104C116.296 19.5635 116.714 20.0375 116.898 20.4238L117.259 20.252ZM113.77 17.5417C112.952 17.2231 112.093 17.0348 111.304 16.9878L111.28 17.387C112.025 17.4314 112.843 17.6101 113.624 17.9145L113.77 17.5417ZM111.304 16.9878C111.205 16.9817 111.107 16.9781 111.011 16.9766L111.005 17.3766C111.095 17.378 111.187 17.3814 111.28 17.387L111.304 16.9878ZM111.008 16.9766H111.008V17.3766H111.008V16.9766ZM108.106 21.4833C105.369 21.4922 102.786 22.3632 100.385 23.8309L100.594 24.1721C102.945 22.7345 105.458 21.8919 108.107 21.8833L108.106 21.4833ZM100.385 23.8309C96.5447 26.1786 93.2275 30.1104 90.8978 34.4577L91.2503 34.6466C93.5564 30.3435 96.8297 26.4732 100.594 24.1721L100.385 23.8309ZM90.8978 34.4577C88.5685 38.8047 87.2257 43.5832 87.2195 47.5045L87.6195 47.5052C87.6256 43.664 88.9444 38.9499 91.2504 34.6466L90.8978 34.4577ZM87.2195 47.5045C87.2132 51.4121 88.4338 54.3492 91.1801 55.6293L91.3491 55.2668C88.8098 54.0832 87.6133 51.346 87.6195 47.5052L87.2195 47.5045ZM91.1803 55.6294C91.1778 55.6283 91.176 55.6273 91.1791 55.6289C91.1809 55.6298 91.1874 55.6333 91.1949 55.6368L91.3636 55.2741C91.3661 55.2753 91.3678 55.2762 91.3648 55.2746C91.363 55.2737 91.3565 55.2702 91.349 55.2667L91.1803 55.6294ZM91.2793 55.6554H91.283V55.2554H91.2793V55.6554ZM91.199 55.637C94.148 57.0017 98.9531 57.9212 103.983 58.0099L103.99 57.61C98.9916 57.5218 94.2474 56.6069 91.367 55.2739L91.199 55.637ZM103.983 58.0099C109.015 58.0988 114.319 57.3691 118.348 55.6279L118.19 55.2607C114.23 56.9718 108.988 57.6983 103.99 57.61L103.983 58.0099ZM118.348 55.6279C120.997 54.4832 122.503 52.1962 123.21 49.143L122.82 49.0528C122.132 52.024 120.688 54.1812 118.19 55.2607L118.348 55.6279ZM123.21 49.143C123.917 46.0926 123.744 42.3166 122.932 38.5889L122.541 38.674C123.345 42.3659 123.509 46.0786 122.82 49.0528L123.21 49.143ZM122.932 38.5889C122.12 34.8595 120.67 31.1588 118.913 28.2306L118.57 28.4365C120.303 31.3243 121.738 34.9837 122.541 38.674L122.932 38.5889ZM118.913 28.2306C117.16 25.3097 115.054 23.1712 113.181 22.4524L113.037 22.8258C114.785 23.4966 116.832 25.5417 118.57 28.4365L118.913 28.2306ZM113.181 22.4524C111.44 21.7845 109.748 21.4781 108.106 21.4833L108.107 21.8833C109.697 21.8782 111.341 22.1748 113.037 22.8258L113.181 22.4524Z" fill="#00681D" mask="url(#path-2-inside-1_14_11169)"/>
<path d="M178 51.15C174.048 51.15 170.258 49.5802 167.464 46.7859C164.67 43.9916 163.1 40.2017 163.1 36.25C163.1 32.1314 164.967 26.5244 167.773 21.9454C169.175 19.657 170.809 17.6306 172.556 16.1774C174.304 14.7237 176.157 13.85 178 13.85C179.843 13.85 181.696 14.7237 183.444 16.1774C185.191 17.6306 186.825 19.657 188.227 21.9454C191.033 26.5244 192.9 32.1314 192.9 36.25C192.9 40.2017 191.33 43.9916 188.536 46.7859C185.742 49.5802 181.952 51.15 178 51.15ZM201.218 45.8027C199.073 46.2771 196.851 46.2713 194.71 45.7866L198 36.25H198.1C198.1 36.2499 198.1 36.2499 198.1 36.2498C198.1 33.0829 197.012 29.0651 195.254 25.3027C193.512 21.5733 191.106 18.0819 188.434 15.912C189.784 13.8924 191.313 12.1341 192.93 10.8771C194.568 9.604 196.288 8.85 198 8.85C199.843 8.85 201.696 9.72368 203.444 11.1774C205.191 12.6306 206.825 14.657 208.227 16.9454C211.033 21.5244 212.9 27.1314 212.9 31.25C212.901 33.5002 212.392 35.7213 211.411 37.7467C210.431 39.772 209.004 41.549 207.239 42.9442C205.474 44.3395 203.415 45.3168 201.218 45.8027Z" fill="url(#paint2_linear_14_11169)" stroke="#00681D" stroke-width="0.2"/>
<defs>
<linearGradient id="paint0_linear_14_11169" x1="8.12558" y1="30.6224" x2="52.4569" y2="30.8942" gradientUnits="userSpaceOnUse">
<stop stop-color="#F9B420"/>
<stop offset="0.5" stop-color="#F7C02D"/>
<stop offset="1" stop-color="#98B130"/>
</linearGradient>
<linearGradient id="paint1_linear_14_11169" x1="88.1098" y1="29.9927" x2="129.588" y2="30.2012" gradientUnits="userSpaceOnUse">
<stop stop-color="#F9B420"/>
<stop offset="0.5" stop-color="#F7C02D"/>
<stop offset="1" stop-color="#98B130"/>
</linearGradient>
<linearGradient id="paint2_linear_14_11169" x1="163.821" y1="29.7719" x2="213.169" y2="30.1542" gradientUnits="userSpaceOnUse">
<stop stop-color="#F9B420"/>
<stop offset="0.5" stop-color="#F7C02D"/>
<stop offset="1" stop-color="#98B130"/>
</linearGradient>
</defs>
</svg>
